<?xml version="1.0" standalone="no"?>
<!DOCTYPE svg PUBLIC "-//W3C//DTD SVG 20010904//EN"
 "http://www.w3.org/TR/2001/REC-SVG-20010904/DTD/svg10.dtd">
<svg version="1.0" xmlns="http://www.w3.org/2000/svg"
 width="310.000000pt" height="310.000000pt" viewBox="0 0 310.000000 310.000000"
 preserveAspectRatio="xMidYMid meet">
<metadata>
Created by potrace 1.11, written by Peter Selinger 2001-2013
</metadata>
<g transform="translate(0.000000,310.000000) scale(0.100000,-0.100000)"
fill="#000000" stroke="none">
<path d="M1531 3048 c-7 -22 -14 -50 -16 -60 -4 -18 -40 -151 -75 -278 -10
-36 -37 -137 -60 -225 -66 -250 -117 -436 -122 -440 -2 -2 -69 14 -148 36 -80
22 -185 51 -235 64 -49 13 -217 58 -373 99 -155 42 -285 76 -289 76 -4 0 163
-171 372 -381 209 -209 382 -382 385 -385 2 -3 -169 -178 -380 -389 -212 -212
-382 -385 -378 -385 4 0 110 27 235 61 125 34 235 63 243 65 8 2 49 13 90 24
41 11 82 22 90 24 30 8 256 68 316 86 34 10 66 15 71 11 7 -5 29 -81 68 -231
2 -8 22 -84 45 -169 23 -84 43 -161 45 -170 4 -15 36 -133 91 -336 30 -109 32
-117 34 -130 1 -16 19 19 24 51 5 28 46 182 101 379 14 50 27 99 30 110 2 11
18 72 35 135 17 63 42 158 56 210 14 52 29 109 35 126 11 36 -8 38 189 -16 63
-17 142 -38 175 -46 33 -8 71 -19 85 -23 14 -5 43 -13 65 -19 111 -29 284 -75
399 -107 72 -19 135 -35 140 -35 6 0 -162 173 -374 385 -211 211 -382 386
-380 389 3 3 176 176 385 385 209 210 376 381 372 381 -10 0 -978 -258 -1011
-269 -16 -6 -32 -9 -34 -6 -2 2 -24 77 -48 167 -24 90 -51 188 -59 218 -9 30
-51 190 -95 354 -44 164 -81 301 -83 303 -2 2 -9 -16 -16 -39z"/>
</g>
</svg>
