<?xml version="1.0" encoding="utf-8"?>
<!-- Generator: Adobe Illustrator 24.0.1, SVG Export Plug-In . SVG Version: 6.00 Build 0)  -->
<svg version="1.1" id="Layer_1" xmlns="http://www.w3.org/2000/svg" xmlns:xlink="http://www.w3.org/1999/xlink" x="0px" y="0px"
	 viewBox="0 0 860.2 122.5" style="enable-background:new 0 0 860.2 122.5;" xml:space="preserve">
<style type="text/css">
	.st0{fill:#004785;}
	.st1{fill:#005941;}
</style>
<path class="st0" d="M44.9,13.3l-0.2,25.4c0,10.5-6.3,14.6-14.7,14.6c-7.3,0-16.5-3.2-16.5-14.2V13.3c0-1.4-1-2.3-2-2.8h11.9
	c-1,0.5-1.9,1.4-1.9,2.8v26c0,4.3,1.5,10.5,9.5,10.5c7.4,0,10-4.8,10-11L41,13.3c0-1.4-0.7-2.3-1.7-2.8h7.2
	C45.5,11,44.9,11.9,44.9,13.3z"/>
<path class="st0" d="M61.7,53.3c-5.6,0-9.7-1.9-11.9-3l-0.3-10.5c1.2,4.4,4.9,10.2,11.3,10.2c6.1,0,8-4.4,8-7.4c0-6-5.4-6.8-11-9.8
	c-5.7-3.2-8.2-6.5-8.2-11.2c0-8.4,7.9-11.8,13.5-11.8c2.1,0,6.2,0.4,9.4,2.3l0.3,9.2C71.9,18,68.3,13,62.4,13c-4.7,0-6.6,3.3-6.6,6
	c0,3.8,2.7,5.2,8.5,7.9c5.8,2.7,11.8,4.8,11.8,13.4C76.1,48,69.3,53.3,61.7,53.3z"/>
<path class="st0" d="M96.1,52.7H80.2c0.9-0.6,1.6-1.4,1.6-2.8V13.3c0-1.4-0.7-2.3-1.6-2.8h16.5c20.4,0,24.5,14.4,24.5,20.5
	C121.2,41.8,112.9,52.7,96.1,52.7z M95.4,13.6c-1.5,0-4.8,0-5.7,0.1v35.7c1.5,0,3.8,0,5,0c14,0,17.9-9.4,17.9-18.5
	C112.6,23.5,108.2,13.6,95.4,13.6z"/>
<path class="st0" d="M145.3,52.7c1.6-0.9,1.9-1.7,1.5-3c-0.2-0.6-1.8-4.4-3.5-8.6H128c-1.9,4.2-3.3,7.9-3.5,8.6
	c-0.6,1.5-0.2,2.4,1.4,3.1h-8.6c1.7-1.2,2.3-1.9,2.9-3c1.2-2.4,17.5-40.4,17.5-40.4s16.5,38.1,17.6,40.4c0.6,1.3,1.1,2,3.1,3H145.3z
	 M135.5,22.6c0,0-4.2,10.5-6.2,15.2h12.5C138.9,30.9,135.5,22.6,135.5,22.6z"/>
<g>
	<path class="st1" d="M156.7,58.6c0,0-90.2-2.2-143.7,26.2c0,0,56.6-22.4,143.7-20.2V58.6z"/>
	<path class="st1" d="M13,58.6c0,0,30.4,0.3,49.3,7.4c0,0-38.7-3.2-49.3-1.6V58.6z"/>
	<path class="st1" d="M13,68.5c0,0,21.8-1,34.9,0.3c0,0-31.7,3.8-34.9,5.4V68.5z"/>
	<path class="st1" d="M141.7,69.5l-0.5,0C115,70,60,73.2,13,89.8v20l143.7,0V69.5C156.7,69.5,151.1,69.3,141.7,69.5z"/>
</g>
<g>
	<g>
		<path d="M200.4,87.2V75.6h2.5v11.6c0,4.7,2,6.2,4.6,6.2c2.6,0,4.7-1.5,4.7-6.2V75.6h2.4v11.6c0,6.3-3.1,8.5-7.1,8.5
			S200.4,93.5,200.4,87.2z"/>
		<path d="M218.4,92.7l1.5-1.7c1.4,1.5,3.4,2.4,5.4,2.4c2.6,0,4.1-1.3,4.1-3.2c0-2-1.4-2.7-3.3-3.5l-2.8-1.2c-1.8-0.8-4-2.2-4-5.1
			c0-3,2.6-5.2,6.2-5.2c2.3,0,4.4,1,5.8,2.4l-1.3,1.6c-1.2-1.1-2.6-1.8-4.5-1.8c-2.2,0-3.7,1.1-3.7,2.9c0,1.9,1.7,2.6,3.3,3.3
			l2.8,1.2c2.3,1,4.1,2.3,4.1,5.3c0,3.1-2.6,5.6-6.7,5.6C222.5,95.6,220.1,94.5,218.4,92.7z"/>
		<path d="M241.8,75.6h4.9c6.1,0,9.3,3.5,9.3,9.8c0,6.3-3.2,9.9-9.2,9.9h-5V75.6z M246.5,93.2c4.6,0,6.9-2.9,6.9-7.9
			c0-5-2.3-7.7-6.9-7.7h-2.2v15.6H246.5z"/>
		<path d="M260.3,75.6h11.3v2.1h-8.8v6.2h7.5V86h-7.5v7.2h9.1v2.1h-11.6V75.6z"/>
		<path d="M276.1,75.6h5.6c4.4,0,7.4,1.5,7.4,5.8c0,4.1-3,6.1-7.3,6.1h-3.2v7.8h-2.5V75.6z M281.5,85.4c3.4,0,5.1-1.2,5.1-4
			c0-2.8-1.7-3.8-5.2-3.8h-2.8v7.8H281.5z"/>
		<path d="M297.1,75.6h2.8l6.7,19.7h-2.7l-3.4-11c-0.7-2.2-1.3-4.4-2-6.6h-0.1c-0.6,2.3-1.2,4.4-1.9,6.6l-3.5,11h-2.5L297.1,75.6z
			 M293.9,87.3h9.1v2h-9.1V87.3z"/>
		<path d="M309.4,75.6h6.2c4,0,6.9,1.4,6.9,5.5c0,3.9-2.9,5.8-6.9,5.8h-3.7v8.3h-2.5V75.6z M315.2,84.9c3.1,0,4.8-1.2,4.8-3.8
			c0-2.6-1.7-3.5-4.8-3.5h-3.3v7.3H315.2z M315,86.3l2-1.3l6,10.3h-2.8L315,86.3z"/>
		<path d="M330.5,77.7h-6v-2.1H339v2.1h-6v17.6h-2.5V77.7z"/>
		<path d="M342.5,75.6h3l3.8,10.5c0.5,1.3,0.9,2.7,1.4,4.1h0.1c0.5-1.4,0.9-2.8,1.4-4.1l3.7-10.5h3v19.7h-2.3V84.4
			c0-1.7,0.2-4.1,0.3-5.8h-0.1l-1.6,4.5l-3.7,10.2h-1.7l-3.7-10.2l-1.6-4.5h-0.1c0.1,1.7,0.3,4.1,0.3,5.8v10.8h-2.3V75.6z"/>
		<path d="M364.3,75.6h11.3v2.1h-8.8v6.2h7.5V86h-7.5v7.2h9.1v2.1h-11.6V75.6z"/>
		<path d="M380.1,75.6h2.6l7.1,12.4L392,92h0.1c-0.1-2-0.3-4.2-0.3-6.3V75.6h2.4v19.7h-2.6l-7.1-12.4l-2.1-4.1h-0.1
			c0.1,2,0.3,4.1,0.3,6.2v10.3h-2.4V75.6z"/>
		<path d="M403.6,77.7h-6v-2.1h14.4v2.1h-6v17.6h-2.5V77.7z"/>
		<path d="M420.5,85.4c0-6.3,3.5-10.1,8.4-10.1c4.9,0,8.4,3.8,8.4,10.1c0,6.3-3.5,10.3-8.4,10.3C424,95.6,420.5,91.7,420.5,85.4z
			 M434.7,85.4c0-4.9-2.3-7.9-5.8-7.9c-3.5,0-5.8,3-5.8,7.9c0,4.9,2.3,8.1,5.8,8.1C432.4,93.4,434.7,90.3,434.7,85.4z"/>
		<path d="M441.5,75.6h11.4v2.1h-8.8v6.6h7.5v2.1h-7.5v8.8h-2.5V75.6z"/>
		<path d="M466.4,75.6h2.8l6.7,19.7h-2.7l-3.4-11c-0.7-2.2-1.3-4.4-2-6.6h-0.1c-0.6,2.3-1.2,4.4-1.9,6.6l-3.5,11h-2.5L466.4,75.6z
			 M463.3,87.3h9.1v2h-9.1V87.3z"/>
		<path d="M477.5,85.5c0-6.4,3.8-10.2,9-10.2c2.7,0,4.5,1.2,5.7,2.4l-1.4,1.6c-1-1-2.3-1.9-4.2-1.9c-4,0-6.5,3-6.5,8
			c0,4.9,2.3,8.1,6.5,8.1c1.4,0,2.8-0.4,3.5-1.2v-5.1H486v-2.1h6.5v8.3c-1.3,1.3-3.4,2.3-6.1,2.3C481.2,95.6,477.5,91.8,477.5,85.5z
			"/>
		<path d="M497.2,75.6h6.2c4,0,6.9,1.4,6.9,5.5c0,3.9-2.9,5.8-6.9,5.8h-3.7v8.3h-2.5V75.6z M503,84.9c3.1,0,4.8-1.2,4.8-3.8
			c0-2.6-1.7-3.5-4.8-3.5h-3.3v7.3H503z M502.9,86.3l2-1.3l6,10.3H508L502.9,86.3z"/>
		<path d="M514.3,75.6h2.5v19.7h-2.5V75.6z"/>
		<path d="M521,85.5c0-6.4,3.7-10.2,8.7-10.2c2.4,0,4.3,1.2,5.4,2.4l-1.4,1.6c-1-1.1-2.3-1.9-4-1.9c-3.7,0-6.2,3-6.2,8
			c0,4.9,2.4,8.1,6.1,8.1c1.9,0,3.3-0.8,4.6-2.2l1.4,1.6c-1.6,1.8-3.5,2.8-6,2.8C524.7,95.6,521,91.8,521,85.5z"/>
		<path d="M539.2,87.2V75.6h2.5v11.6c0,4.7,2,6.2,4.6,6.2c2.6,0,4.7-1.5,4.7-6.2V75.6h2.4v11.6c0,6.3-3.1,8.5-7.1,8.5
			S539.2,93.5,539.2,87.2z"/>
		<path d="M558.6,75.6h2.5v17.6h8.6v2.1h-11.1V75.6z"/>
		<path d="M577.3,77.7h-6v-2.1h14.4v2.1h-6v17.6h-2.5V77.7z"/>
		<path d="M589.2,87.2V75.6h2.5v11.6c0,4.7,2,6.2,4.6,6.2c2.6,0,4.7-1.5,4.7-6.2V75.6h2.4v11.6c0,6.3-3.1,8.5-7.1,8.5
			S589.2,93.5,589.2,87.2z"/>
		<path d="M608.6,75.6h6.2c4,0,6.9,1.4,6.9,5.5c0,3.9-2.9,5.8-6.9,5.8h-3.7v8.3h-2.5V75.6z M614.5,84.9c3.1,0,4.8-1.2,4.8-3.8
			c0-2.6-1.7-3.5-4.8-3.5h-3.3v7.3H614.5z M614.3,86.3l2-1.3l6,10.3h-2.8L614.3,86.3z"/>
		<path d="M625.7,75.6h11.3v2.1h-8.8v6.2h7.5V86h-7.5v7.2h9.1v2.1h-11.6V75.6z"/>
	</g>
</g>
<g>
	<g>
		<path d="M209.9,14h5.1l12,35.4h-4.8L216,29.6c-1.3-4-2.4-7.9-3.5-11.9h-0.2c-1.1,4.1-2.2,8-3.5,11.9l-6.2,19.8h-4.6L209.9,14z
			 M204.2,35h16.3v3.6h-16.3V35z"/>
		<path d="M229.6,54.5c0-2.2,1.4-4.4,3.8-5.9v-0.2c-1.3-0.8-2.3-2.2-2.3-4.3c0-2.2,1.5-3.9,2.9-4.9v-0.2c-1.7-1.4-3.4-3.9-3.4-7
			c0-5.7,4.5-9.4,9.8-9.4c1.4,0,2.8,0.3,3.7,0.6h9.2v3.4h-5.4c1.2,1.2,2.1,3.2,2.1,5.4c0,5.6-4.2,9.1-9.6,9.1
			c-1.3,0-2.7-0.3-3.9-0.9c-1,0.8-1.7,1.7-1.7,3.1c0,1.7,1.1,2.8,4.6,2.8h5.1c6.1,0,9.2,1.9,9.2,6.3c0,4.9-5.2,9.1-13.3,9.1
			C234,61.5,229.6,59,229.6,54.5z M249.3,53.1c0-2.4-1.8-3.3-5.3-3.3h-4.5c-1,0-2.2-0.1-3.4-0.4c-1.9,1.3-2.7,2.9-2.7,4.4
			c0,2.8,2.8,4.6,7.6,4.6C246.1,58.5,249.3,55.8,249.3,53.1z M246,31.9c0-3.8-2.5-6.1-5.6-6.1c-3.1,0-5.6,2.3-5.6,6.1
			c0,3.8,2.6,6.2,5.6,6.2C243.4,38.1,246,35.7,246,31.9z"/>
		<path d="M258.8,23.2h3.7l0.4,4.8h0.1c1.8-3.3,4.5-5.4,7.5-5.4c1.2,0,2,0.1,2.8,0.5l-0.8,3.9c-0.9-0.3-1.5-0.4-2.5-0.4
			c-2.2,0-4.9,1.6-6.6,6v16.9h-4.4V23.2z"/>
		<path d="M276.7,14.9c0-1.7,1.3-2.9,3.1-2.9c1.7,0,3.1,1.1,3.1,2.9c0,1.7-1.3,2.9-3.1,2.9C278,17.8,276.7,16.6,276.7,14.9z
			 M277.5,23.2h4.4v26.2h-4.4V23.2z"/>
		<path d="M288.8,36.4c0-8.8,5.9-13.8,12.6-13.8c3.4,0,5.8,1.4,7.7,3.1l-2.3,2.9c-1.5-1.4-3.1-2.3-5.2-2.3c-4.8,0-8.2,4.1-8.2,10.1
			c0,6,3.3,10,8.1,10c2.4,0,4.5-1.2,6.2-2.6l1.9,3c-2.4,2.1-5.3,3.3-8.5,3.3C294.2,50.1,288.8,45,288.8,36.4z"/>
		<path d="M315.1,39.8V23.2h4.4v16.1c0,4.9,1.5,7,5,7c2.7,0,4.5-1.3,7-4.4V23.2h4.4v26.2h-3.7l-0.4-4.1h-0.1
			c-2.4,2.9-5.1,4.8-8.7,4.8C317.5,50.1,315.1,46.5,315.1,39.8z"/>
		<path d="M344.8,44.2V11h4.4v33.5c0,1.4,0.6,1.9,1.2,1.9c0.3,0,0.5,0,1-0.1l0.6,3.4c-0.6,0.2-1.4,0.4-2.6,0.4
			C346.2,50.1,344.8,48,344.8,44.2z"/>
		<path d="M359.3,41.3V26.8h-3.9v-3.4l4.1-0.3l0.5-7.4h3.7v7.4h7.1v3.6h-7.1v14.6c0,3.2,1,5.1,4.1,5.1c0.9,0,2.1-0.4,3-0.7l0.9,3.4
			c-1.5,0.5-3.2,1-4.9,1C361.2,50.1,359.3,46.5,359.3,41.3z"/>
		<path d="M376.5,39.8V23.2h4.4v16.1c0,4.9,1.5,7,5,7c2.7,0,4.5-1.3,7-4.4V23.2h4.4v26.2h-3.7l-0.4-4.1h-0.1
			c-2.4,2.9-5.1,4.8-8.7,4.8C378.9,50.1,376.5,46.5,376.5,39.8z"/>
		<path d="M406.2,23.2h3.7l0.4,4.8h0.1c1.8-3.3,4.5-5.4,7.5-5.4c1.2,0,2,0.1,2.8,0.5l-0.8,3.9c-0.9-0.3-1.5-0.4-2.5-0.4
			c-2.2,0-4.9,1.6-6.6,6v16.9h-4.4V23.2z"/>
		<path d="M423.3,42.6c0-5.7,4.9-8.6,16.1-9.8c0-3.4-1.1-6.6-5.4-6.6c-3,0-5.8,1.4-7.8,2.8l-1.7-3c2.4-1.6,6.1-3.4,10.3-3.4
			c6.4,0,9.1,4.3,9.1,10.8v16.1h-3.7l-0.4-3.1h-0.1c-2.5,2.1-5.4,3.8-8.7,3.8C426.6,50.1,423.3,47.4,423.3,42.6z M439.4,43v-7.3
			c-8.8,1.1-11.8,3.2-11.8,6.6c0,3,2,4.2,4.6,4.2C434.8,46.5,436.9,45.3,439.4,43z"/>
		<path d="M452.1,44.2V11h4.4v33.5c0,1.4,0.6,1.9,1.2,1.9c0.3,0,0.5,0,1-0.1l0.6,3.4c-0.6,0.2-1.4,0.4-2.6,0.4
			C453.5,50.1,452.1,48,452.1,44.2z"/>
		<path d="M477.1,14h11.1c7.2,0,12.4,2.6,12.4,10c0,7.1-5.2,10.5-12.4,10.5h-6.6v15h-4.5V14z M487.6,30.8c5.5,0,8.6-2.2,8.6-6.8
			c0-4.7-3-6.3-8.6-6.3h-5.9v13.1H487.6z M487.3,33.2l3.5-2.3l10.8,18.5h-5.1L487.3,33.2z"/>
		<path d="M505.5,36.4c0-8.5,5.8-13.8,11.8-13.8c6.7,0,10.5,4.8,10.5,12.3c0,0.9-0.1,1.9-0.2,2.5h-17.7c0.3,5.6,3.7,9.2,8.7,9.2
			c2.5,0,4.6-0.8,6.5-2.1l1.6,2.9c-2.3,1.5-5.1,2.7-8.7,2.7C511.1,50.1,505.5,45,505.5,36.4z M523.8,34.2c0-5.3-2.4-8.1-6.5-8.1
			c-3.7,0-7,3-7.5,8.1H523.8z"/>
		<path d="M531.3,46.4l2.2-2.9c2.3,1.8,4.6,3.1,7.7,3.1c3.4,0,5.2-1.8,5.2-4.1c0-2.7-3.1-3.9-6-5c-3.7-1.3-7.8-3.2-7.8-7.6
			c0-4.2,3.4-7.5,9.1-7.5c3.3,0,6.1,1.3,8.2,2.9l-2.1,2.8c-1.8-1.3-3.7-2.3-6-2.3c-3.3,0-4.8,1.8-4.8,3.8c0,2.5,2.9,3.4,5.8,4.6
			c3.8,1.4,8,3,8,8c0,4.3-3.4,7.8-9.6,7.8C537.4,50.1,533.8,48.5,531.3,46.4z"/>
		<path d="M554.9,36.4c0-8.5,5.8-13.8,11.8-13.8c6.7,0,10.5,4.8,10.5,12.3c0,0.9-0.1,1.9-0.2,2.5h-17.7c0.3,5.6,3.7,9.2,8.7,9.2
			c2.5,0,4.6-0.8,6.5-2.1l1.6,2.9c-2.3,1.5-5.1,2.7-8.7,2.7C560.5,50.1,554.9,45,554.9,36.4z M573.2,34.2c0-5.3-2.4-8.1-6.5-8.1
			c-3.7,0-7,3-7.5,8.1H573.2z"/>
		<path d="M582,42.6c0-5.7,4.9-8.6,16.1-9.8c0-3.4-1.1-6.6-5.4-6.6c-3,0-5.8,1.4-7.8,2.8l-1.7-3c2.4-1.6,6.1-3.4,10.3-3.4
			c6.4,0,9.1,4.3,9.1,10.8v16.1h-3.7l-0.4-3.1h-0.1c-2.5,2.1-5.4,3.8-8.7,3.8C585.3,50.1,582,47.4,582,42.6z M598.1,43v-7.3
			c-8.8,1.1-11.8,3.2-11.8,6.6c0,3,2,4.2,4.6,4.2C593.5,46.5,595.6,45.3,598.1,43z"/>
		<path d="M610.8,23.2h3.7l0.4,4.8h0.1c1.8-3.3,4.5-5.4,7.5-5.4c1.2,0,2,0.1,2.8,0.5l-0.8,3.9c-0.9-0.3-1.5-0.4-2.5-0.4
			c-2.2,0-4.9,1.6-6.6,6v16.9h-4.4V23.2z"/>
		<path d="M627.6,36.4c0-8.8,5.9-13.8,12.6-13.8c3.4,0,5.8,1.4,7.7,3.1l-2.3,2.9c-1.5-1.4-3.1-2.3-5.2-2.3c-4.8,0-8.2,4.1-8.2,10.1
			c0,6,3.3,10,8.1,10c2.4,0,4.5-1.2,6.2-2.6l1.9,3c-2.4,2.1-5.3,3.3-8.5,3.3C633,50.1,627.6,45,627.6,36.4z"/>
		<path d="M654.2,11h4.4v10.5l-0.2,5.4c2.5-2.4,5.1-4.3,8.7-4.3c5.5,0,8,3.6,8,10.3v16.6h-4.4V33.4c0-4.9-1.5-7-5-7
			c-2.7,0-4.5,1.4-7.2,4v19h-4.4V11z"/>
		<path d="M692.2,44.8l2.7-3.1c2.6,2.6,6.1,4.4,9.8,4.4c4.7,0,7.4-2.3,7.4-5.8c0-3.6-2.6-4.8-5.9-6.2l-5.1-2.2
			c-3.3-1.4-7.2-3.9-7.2-9.1c0-5.4,4.7-9.4,11.2-9.4c4.2,0,7.9,1.8,10.4,4.4l-2.4,2.9c-2.2-2-4.8-3.3-8-3.3c-4,0-6.6,2-6.6,5.2
			c0,3.4,3.1,4.7,5.9,5.9l5.1,2.2c4.1,1.8,7.3,4.2,7.3,9.5c0,5.6-4.6,10.1-12.1,10.1C699.6,50.1,695.3,48.1,692.2,44.8z"/>
		<path d="M721.3,36.4c0-8.5,5.8-13.8,11.8-13.8c6.7,0,10.5,4.8,10.5,12.3c0,0.9-0.1,1.9-0.2,2.5h-17.7c0.3,5.6,3.7,9.2,8.7,9.2
			c2.5,0,4.6-0.8,6.5-2.1l1.6,2.9c-2.3,1.5-5.1,2.7-8.7,2.7C726.8,50.1,721.3,45,721.3,36.4z M739.6,34.2c0-5.3-2.4-8.1-6.5-8.1
			c-3.7,0-7,3-7.5,8.1H739.6z"/>
		<path d="M750,23.2h3.7L754,28h0.1c1.8-3.3,4.5-5.4,7.5-5.4c1.2,0,2,0.1,2.8,0.5l-0.8,3.9c-0.9-0.3-1.5-0.4-2.5-0.4
			c-2.2,0-4.9,1.6-6.6,6v16.9H750V23.2z"/>
		<path d="M765,23.2h4.6l5,14.9c0.8,2.6,1.6,5.2,2.4,7.7h0.2c0.8-2.5,1.6-5.2,2.4-7.7l5-14.9h4.4l-9.3,26.2h-5.2L765,23.2z"/>
		<path d="M793.1,14.9c0-1.7,1.3-2.9,3.1-2.9c1.7,0,3.1,1.1,3.1,2.9c0,1.7-1.3,2.9-3.1,2.9C794.5,17.8,793.1,16.6,793.1,14.9z
			 M794,23.2h4.4v26.2H794V23.2z"/>
		<path d="M805.3,36.4c0-8.8,5.9-13.8,12.6-13.8c3.4,0,5.8,1.4,7.7,3.1l-2.3,2.9c-1.5-1.4-3.1-2.3-5.2-2.3c-4.8,0-8.2,4.1-8.2,10.1
			c0,6,3.3,10,8.1,10c2.4,0,4.5-1.2,6.2-2.6l1.9,3c-2.4,2.1-5.3,3.3-8.5,3.3C810.6,50.1,805.3,45,805.3,36.4z"/>
		<path d="M829.9,36.4c0-8.5,5.8-13.8,11.8-13.8c6.7,0,10.5,4.8,10.5,12.3c0,0.9-0.1,1.9-0.2,2.5h-17.7c0.3,5.6,3.7,9.2,8.7,9.2
			c2.5,0,4.6-0.8,6.5-2.1l1.6,2.9c-2.3,1.5-5.1,2.7-8.7,2.7C835.5,50.1,829.9,45,829.9,36.4z M848.3,34.2c0-5.3-2.4-8.1-6.5-8.1
			c-3.7,0-7,3-7.5,8.1H848.3z"/>
	</g>
</g>
</svg>
