<svg id="Layer_1" data-name="Layer 1" xmlns="http://www.w3.org/2000/svg" viewBox="0 0 1125.47 122.5"><defs><style>.cls-1{fill:#004785;}.cls-2{fill:#005941;}.cls-3{fill:none;}</style></defs><title>Artboard 2</title><path class="cls-1" d="M44.86,13.29l-.19,25.36c0,10.54-6.26,14.64-14.69,14.64-7.26,0-16.5-3.23-16.5-14.2V13.29a3.16,3.16,0,0,0-2-2.79H23.4a3.11,3.11,0,0,0-1.92,2.79v26c0,4.34,1.49,10.48,9.55,10.48,7.38,0,10-4.83,10-11L41,13.29a3,3,0,0,0-1.67-2.79h7.19A3,3,0,0,0,44.86,13.29Z"/><path class="cls-1" d="M61.65,53.29a26.35,26.35,0,0,1-11.9-3l-.31-10.48c1.18,4.4,4.9,10.23,11.35,10.23,6.13,0,8-4.4,8-7.44,0-5.95-5.39-6.76-11-9.79s-8.19-6.51-8.19-11.23c0-8.43,7.88-11.78,13.52-11.78a20,20,0,0,1,9.36,2.3l.31,9.17c-.87-3.28-4.4-8.24-10.35-8.24-4.72,0-6.58,3.28-6.58,5.95,0,3.78,2.67,5.21,8.5,7.87S76.1,31.65,76.1,40.27C76.1,48,69.28,53.29,61.65,53.29Z"/><path class="cls-1" d="M96.12,52.67H80.19a3.09,3.09,0,0,0,1.61-2.79V13.29a3,3,0,0,0-1.61-2.79H96.68c20.4,0,24.49,14.45,24.49,20.47C121.17,41.75,112.86,52.67,96.12,52.67ZM95.38,13.6c-1.49,0-4.78,0-5.71.13V49.44h5c14,0,17.92-9.42,17.92-18.47C112.55,23.53,108.21,13.6,95.38,13.6Z"/><path class="cls-1" d="M145.27,52.67c1.62-.87,1.93-1.74,1.49-3-.18-.62-1.8-4.4-3.53-8.62H128a89.28,89.28,0,0,0-3.47,8.56c-.56,1.48-.25,2.35,1.42,3.1h-8.55a7.38,7.38,0,0,0,2.91-3c1.18-2.36,17.48-40.43,17.48-40.43s16.5,38.07,17.61,40.43a5.5,5.5,0,0,0,3.1,3ZM135.48,22.6s-4.22,10.54-6.2,15.19H141.8C138.89,30.9,135.48,22.6,135.48,22.6Z"/><path class="cls-2" d="M156.68,58.62S66.45,56.38,13,84.86c0,0,56.63-22.4,143.66-20.16Z"/><path class="cls-2" d="M13,58.62s30.4.32,49.27,7.36c0,0-38.71-3.2-49.27-1.6Z"/><path class="cls-2" d="M13,68.54s21.76-1,34.88.32c0,0-31.68,3.84-34.88,5.44Z"/><path class="cls-2" d="M141.73,69.52h-.47C115,70,60,73.2,13,89.79v20l143.66,0V69.52S151.12,69.35,141.73,69.52Z"/><path d="M200.36,87.15V75.59h2.5V87.22c0,4.73,2,6.22,4.57,6.22s4.67-1.49,4.67-6.22V75.59h2.4V87.15c0,6.32-3.05,8.49-7.07,8.49S200.36,93.47,200.36,87.15Z"/><path d="M218.06,92.72l1.5-1.72A7.71,7.71,0,0,0,225,93.44c2.59,0,4.12-1.29,4.12-3.2s-1.43-2.65-3.28-3.46L223,85.53c-1.84-.79-4-2.18-4-5.07s2.62-5.23,6.2-5.23a8.15,8.15,0,0,1,5.8,2.44l-1.33,1.61a6.29,6.29,0,0,0-4.47-1.84c-2.21,0-3.67,1.11-3.67,2.87s1.71,2.61,3.26,3.26l2.8,1.21c2.28,1,4.06,2.34,4.06,5.27,0,3.11-2.57,5.59-6.71,5.59A9.47,9.47,0,0,1,218.06,92.72Z"/><path d="M241.51,75.59h4.93c6.05,0,9.29,3.52,9.29,9.78s-3.24,9.91-9.18,9.91h-5Zm4.74,17.64c4.6,0,6.9-2.89,6.9-7.86s-2.3-7.72-6.9-7.72H244V93.23Z"/><path d="M260,75.59h11.35v2.12h-8.84v6.17h7.45V86h-7.45v7.16h9.14v2.12H260Z"/><path d="M275.77,75.59h5.62c4.41,0,7.39,1.49,7.39,5.8,0,4.14-3,6.08-7.27,6.08h-3.23v7.81h-2.51Zm5.43,9.85c3.44,0,5.08-1.25,5.08-4s-1.74-3.77-5.2-3.77h-2.8v7.82Z"/><path d="M295.3,75.59h2.83l6.66,19.69h-2.66l-3.43-11c-.71-2.21-1.34-4.37-2-6.64h-.12c-.61,2.28-1.24,4.43-1.95,6.64l-3.47,11h-2.55Zm-3.16,11.69h9.07v2h-9.07Z"/><path d="M307.45,75.59h6.17c4,0,6.89,1.44,6.89,5.54,0,3.94-2.88,5.83-6.89,5.83H310v8.32h-2.51Zm5.81,9.34c3.06,0,4.75-1.24,4.75-3.8s-1.69-3.51-4.75-3.51H310v7.31Zm-.14,1.34,2-1.29,6,10.3h-2.84Z"/><path d="M328.2,77.71h-6V75.59h14.42v2.12h-6V95.28h-2.5Z"/><path d="M340.18,75.59h3L347,86.11c.47,1.35.93,2.74,1.4,4.1h.12c.47-1.36.89-2.75,1.36-4.1l3.73-10.52h3V95.28h-2.33V84.44c0-1.71.19-4.08.32-5.82h-.12l-1.57,4.49-3.7,10.18h-1.66l-3.73-10.18-1.56-4.49h-.12c.13,1.74.32,4.11.32,5.82V95.28h-2.27Z"/><path d="M362,75.59h11.35v2.12H364.5v6.17H372V86H364.5v7.16h9.14v2.12H362Z"/><path d="M377.8,75.59h2.59L387.51,88l2.13,4.08h.12c-.13-2-.32-4.21-.32-6.27V75.59h2.38V95.28h-2.59l-7.12-12.39L380,78.83h-.12c.13,2,.32,4.09.32,6.15v10.3H377.8Z"/><path d="M401.31,77.71h-6V75.59h14.42v2.12h-6V95.28h-2.5Z"/><path d="M418.15,85.37c0-6.31,3.47-10.14,8.41-10.14S435,79.07,435,85.37s-3.48,10.27-8.42,10.27S418.15,91.67,418.15,85.37Zm14.24,0c0-4.91-2.31-7.93-5.83-7.93s-5.83,3-5.83,7.93,2.31,8.07,5.83,8.07S432.39,90.27,432.39,85.37Z"/><path d="M439.21,75.59h11.35v2.12h-8.85v6.64h7.51v2.12h-7.51v8.81h-2.5Z"/><path d="M464.08,75.59h2.82l6.66,19.69h-2.65l-3.43-11c-.71-2.21-1.34-4.37-2-6.64h-.12c-.61,2.28-1.25,4.43-1.95,6.64l-3.47,11h-2.55Zm-3.16,11.69H470v2h-9.06Z"/><path d="M474.9,85.45c0-6.35,3.82-10.22,9-10.22a7.64,7.64,0,0,1,5.68,2.43l-1.37,1.63A5.58,5.58,0,0,0,484,77.44c-4,0-6.52,3-6.52,8s2.34,8,6.54,8a5.31,5.31,0,0,0,3.55-1.16V87.16h-4.17V85.08h6.45v8.28a8.41,8.41,0,0,1-6.06,2.28C478.6,95.64,474.9,91.85,474.9,85.45Z"/><path d="M494.56,75.59h6.16c4,0,6.89,1.44,6.89,5.54,0,3.94-2.88,5.83-6.89,5.83h-3.66v8.32h-2.5Zm5.8,9.34c3.07,0,4.75-1.24,4.75-3.8s-1.68-3.51-4.75-3.51h-3.3v7.31Zm-.13,1.34,2-1.29,6,10.3h-2.84Z"/><path d="M511.63,75.59h2.5V95.28h-2.5Z"/><path d="M518.37,85.45c0-6.35,3.74-10.22,8.74-10.22a7.31,7.31,0,0,1,5.41,2.43l-1.37,1.63a5.35,5.35,0,0,0-4-1.85c-3.72,0-6.19,3-6.19,8s2.36,8,6.1,8a5.91,5.91,0,0,0,4.56-2.21L533,92.8a7.57,7.57,0,0,1-6,2.84C522.05,95.64,518.37,91.85,518.37,85.45Z"/><path d="M536.14,87.15V75.59h2.51V87.22c0,4.73,2,6.22,4.57,6.22s4.67-1.49,4.67-6.22V75.59h2.4V87.15c0,6.32-3,8.49-7.07,8.49S536.14,93.47,536.14,87.15Z"/><path d="M555.58,75.59h2.5V93.16h8.59v2.12H555.58Z"/><path d="M570.66,77.71h-6V75.59h14.42v2.12h-6V95.28h-2.5Z"/><path d="M582.55,87.15V75.59h2.51V87.22c0,4.73,2,6.22,4.57,6.22s4.67-1.49,4.67-6.22V75.59h2.4V87.15c0,6.32-3.05,8.49-7.07,8.49S582.55,93.47,582.55,87.15Z"/><path d="M602,75.59h6.16c4,0,6.89,1.44,6.89,5.54,0,3.94-2.88,5.83-6.89,5.83h-3.66v8.32H602Zm5.8,9.34c3.07,0,4.75-1.24,4.75-3.8s-1.68-3.51-4.75-3.51h-3.3v7.31Zm-.13,1.34,2-1.29,6,10.3h-2.84Z"/><path d="M619.05,75.59H630.4v2.12h-8.84v6.17H629V86h-7.46v7.16h9.14v2.12H619.05Z"/><path d="M209.88,14H215l12,35.44h-4.78L216,29.65c-1.27-4-2.41-7.86-3.54-11.95h-.22c-1.1,4.11-2.24,8-3.51,12l-6.25,19.79h-4.59Zm-5.68,21h16.31v3.59H204.2Z"/><path d="M229.57,54.48c0-2.24,1.43-4.36,3.84-5.93v-.22a4.86,4.86,0,0,1-2.34-4.3A6.26,6.26,0,0,1,234,39.16v-.22a9.11,9.11,0,0,1-3.4-7c0-5.74,4.53-9.35,9.85-9.35a10.73,10.73,0,0,1,3.71.65h9.16v3.42h-5.39A7.58,7.58,0,0,1,250,32c0,5.62-4.25,9.1-9.62,9.1a9.3,9.3,0,0,1-3.91-.89,3.86,3.86,0,0,0-1.67,3.11c0,1.66,1.08,2.84,4.6,2.84h5.11c6.1,0,9.17,1.92,9.17,6.27,0,4.88-5.16,9.08-13.27,9.08C234,61.52,229.57,59,229.57,54.48Zm19.78-1.37c0-2.43-1.84-3.26-5.29-3.26h-4.53a15.13,15.13,0,0,1-3.41-.39,5.46,5.46,0,0,0-2.68,4.4c0,2.82,2.84,4.6,7.61,4.6C246.06,58.46,249.35,55.85,249.35,53.11ZM246,31.89c0-3.81-2.48-6.13-5.58-6.13s-5.57,2.28-5.57,6.13,2.55,6.24,5.57,6.24S246,35.71,246,31.89Z"/><path d="M258.77,23.19h3.67l.38,4.78H263c1.83-3.33,4.51-5.43,7.47-5.43a6.14,6.14,0,0,1,2.8.54L272.4,27a7.45,7.45,0,0,0-2.55-.43c-2.21,0-4.86,1.6-6.64,6V49.44h-4.44Z"/><path d="M276.69,14.93a3.08,3.08,0,0,1,6.14,0,3.08,3.08,0,0,1-6.14,0Zm.82,8.26H282V49.44h-4.44Z"/><path d="M288.84,36.35c0-8.76,5.92-13.81,12.63-13.81a11.07,11.07,0,0,1,7.68,3.08l-2.27,2.94a7.62,7.62,0,0,0-5.21-2.32c-4.75,0-8.24,4.1-8.24,10.11s3.29,10,8.12,10a9.43,9.43,0,0,0,6.16-2.61l1.93,3a12.74,12.74,0,0,1-8.49,3.34C294.17,50.09,288.84,45,288.84,36.35Z"/><path d="M315.06,39.82V23.19h4.44V39.25c0,4.89,1.48,7,5,7,2.68,0,4.54-1.33,7-4.42V23.19h4.45V49.44h-3.67l-.38-4.11h-.15c-2.43,2.87-5.05,4.76-8.65,4.76C317.55,50.09,315.06,46.52,315.06,39.82Z"/><path d="M344.79,44.17V11h4.44V44.49c0,1.36.59,1.9,1.24,1.9a3.74,3.74,0,0,0,1-.11l.6,3.39a7,7,0,0,1-2.55.42C346.16,50.09,344.79,48,344.79,44.17Z"/><path d="M359.34,41.33V26.81h-3.91V23.45l4.11-.26.53-7.36h3.71v7.36h7.11v3.62h-7.11V41.4c0,3.21,1,5.07,4.06,5.07a8.82,8.82,0,0,0,3-.7l.86,3.35a15.85,15.85,0,0,1-4.87,1C361.23,50.09,359.34,46.55,359.34,41.33Z"/><path d="M376.46,39.82V23.19h4.44V39.25c0,4.89,1.48,7,5,7,2.69,0,4.55-1.33,7-4.42V23.19h4.44V49.44h-3.67l-.37-4.11h-.15c-2.43,2.87-5.05,4.76-8.66,4.76C378.94,50.09,376.46,46.52,376.46,39.82Z"/><path d="M406.19,23.19h3.67l.37,4.78h.15c1.83-3.33,4.51-5.43,7.46-5.43a6.12,6.12,0,0,1,2.8.54l-.83,3.9a7.4,7.4,0,0,0-2.54-.43c-2.22,0-4.87,1.6-6.64,6V49.44h-4.44Z"/><path d="M422,42.63c0-5.72,4.94-8.58,16.12-9.8,0-3.37-1.13-6.63-5.41-6.63A14.44,14.44,0,0,0,424.88,29L423.14,26a19.3,19.3,0,0,1,10.31-3.43c6.41,0,9.12,4.26,9.12,10.8v16.1H438.9l-.38-3.14h-.15c-2.5,2.08-5.42,3.79-8.68,3.79C425.3,50.09,422,47.36,422,42.63Zm16.12.41V35.75c-8.79,1-11.77,3.21-11.77,6.56,0,3,2,4.2,4.6,4.2S435.58,45.28,438.12,43Z"/><path d="M450.84,44.17V11h4.45V44.49c0,1.36.59,1.9,1.24,1.9a3.77,3.77,0,0,0,1-.11l.6,3.39a7.05,7.05,0,0,1-2.56.42C452.21,50.09,450.84,48,450.84,44.17Z"/><path d="M475.83,14h11.1c7.22,0,12.4,2.59,12.4,10,0,7.08-5.18,10.49-12.4,10.49h-6.59v15h-4.51Zm10.45,16.8c5.52,0,8.55-2.23,8.55-6.83s-3-6.31-8.55-6.31h-5.94V30.8ZM486,33.23l3.53-2.34,10.82,18.55h-5.11Z"/><path d="M503.65,36.35c0-8.54,5.76-13.81,11.8-13.81,6.69,0,10.47,4.81,10.47,12.32a14.78,14.78,0,0,1-.2,2.52H508c.32,5.56,3.72,9.17,8.72,9.17a11.42,11.42,0,0,0,6.53-2.1l1.59,2.92a15.44,15.44,0,0,1-8.66,2.72C509.22,50.09,503.65,45,503.65,36.35ZM522,34.2c0-5.26-2.37-8.12-6.47-8.12-3.69,0-7,3-7.53,8.12Z"/><path d="M529.47,46.45l2.2-2.93a11.77,11.77,0,0,0,7.74,3.11c3.45,0,5.16-1.84,5.16-4.08,0-2.7-3.1-3.89-6-5-3.68-1.35-7.83-3.16-7.83-7.58,0-4.21,3.36-7.46,9-7.46A13.35,13.35,0,0,1,548,25.49l-2.13,2.85a9.86,9.86,0,0,0-6-2.34c-3.3,0-4.83,1.77-4.83,3.77,0,2.49,2.86,3.44,5.83,4.55,3.78,1.43,8,3,8,8,0,4.25-3.38,7.8-9.57,7.8A15.8,15.8,0,0,1,529.47,46.45Z"/><path d="M553.06,36.35c0-8.54,5.76-13.81,11.8-13.81,6.69,0,10.47,4.81,10.47,12.32a14.78,14.78,0,0,1-.2,2.52H557.45c.32,5.56,3.72,9.17,8.72,9.17a11.42,11.42,0,0,0,6.53-2.1l1.59,2.92a15.45,15.45,0,0,1-8.67,2.72C558.63,50.09,553.06,45,553.06,36.35Zm18.35-2.15c0-5.26-2.37-8.12-6.47-8.12-3.69,0-7,3-7.53,8.12Z"/><path d="M579.41,42.63c0-5.72,4.93-8.58,16.12-9.8,0-3.37-1.13-6.63-5.42-6.63A14.41,14.41,0,0,0,582.29,29L580.55,26a19.3,19.3,0,0,1,10.31-3.43c6.4,0,9.11,4.26,9.11,10.8v16.1H596.3l-.37-3.14h-.15c-2.5,2.08-5.42,3.79-8.68,3.79C582.71,50.09,579.41,47.36,579.41,42.63Zm16.12.41V35.75c-8.79,1-11.77,3.21-11.77,6.56,0,3,2,4.2,4.6,4.2S593,45.28,595.53,43Z"/><path d="M608.25,23.19h3.67L612.3,28h.14c1.83-3.33,4.51-5.43,7.47-5.43a6.12,6.12,0,0,1,2.8.54l-.83,3.9a7.41,7.41,0,0,0-2.55-.43c-2.21,0-4.86,1.6-6.64,6V49.44h-4.44Z"/><path d="M624.5,36.35c0-8.76,5.92-13.81,12.63-13.81a11.09,11.09,0,0,1,7.68,3.08l-2.27,2.94a7.62,7.62,0,0,0-5.21-2.32c-4.76,0-8.24,4.1-8.24,10.11s3.29,10,8.12,10a9.45,9.45,0,0,0,6.16-2.61l1.93,3a12.74,12.74,0,0,1-8.49,3.34C629.83,50.09,624.5,45,624.5,36.35Z"/><path d="M651.07,11h4.44V21.49l-.15,5.4c2.45-2.37,5.11-4.35,8.71-4.35,5.53,0,8,3.57,8,10.27V49.44h-4.44V33.38c0-4.89-1.48-7-4.95-7-2.68,0-4.54,1.37-7.18,4v19h-4.44Z"/><path d="M689.09,44.83l2.7-3.1a13.84,13.84,0,0,0,9.78,4.39c4.65,0,7.41-2.31,7.41-5.76,0-3.62-2.57-4.77-5.91-6.23L698,31.88c-3.31-1.41-7.18-3.91-7.18-9.12,0-5.42,4.72-9.41,11.16-9.41a14.63,14.63,0,0,1,10.43,4.39L710,20.64a11.33,11.33,0,0,0-8-3.32c-4,0-6.61,2-6.61,5.17,0,3.42,3.09,4.69,5.87,5.87l5,2.18c4.1,1.76,7.3,4.21,7.3,9.48,0,5.6-4.63,10.07-12.08,10.07A17,17,0,0,1,689.09,44.83Z"/><path d="M718.13,36.35c0-8.54,5.76-13.81,11.8-13.81,6.7,0,10.48,4.81,10.48,12.32a13.73,13.73,0,0,1-.21,2.52H722.53c.31,5.56,3.71,9.17,8.72,9.17a11.47,11.47,0,0,0,6.53-2.1l1.59,2.92a15.48,15.48,0,0,1-8.67,2.72C723.7,50.09,718.13,45,718.13,36.35Zm18.35-2.15c0-5.26-2.36-8.12-6.47-8.12-3.69,0-7,3-7.52,8.12Z"/><path d="M746.87,23.19h3.67l.37,4.78h.15c1.83-3.33,4.51-5.43,7.46-5.43a6.19,6.19,0,0,1,2.81.54L760.5,27a7.5,7.5,0,0,0-2.55-.43c-2.22,0-4.87,1.6-6.64,6V49.44h-4.44Z"/><path d="M763.17,23.19h4.58l5,14.91c.78,2.57,1.63,5.24,2.42,7.75h.21c.79-2.51,1.64-5.18,2.43-7.75l5-14.91h4.35l-9.28,26.25h-5.17Z"/><path d="M791.36,14.93a3.08,3.08,0,0,1,6.14,0,3.08,3.08,0,0,1-6.14,0Zm.81,8.26h4.44V49.44h-4.44Z"/><path d="M803.5,36.35c0-8.76,5.92-13.81,12.63-13.81a11,11,0,0,1,7.68,3.08l-2.27,2.94a7.6,7.6,0,0,0-5.21-2.32c-4.75,0-8.24,4.1-8.24,10.11s3.3,10,8.12,10a9.47,9.47,0,0,0,6.17-2.61l1.92,3a12.71,12.71,0,0,1-8.48,3.34C808.83,50.09,803.5,45,803.5,36.35Z"/><path d="M827,36.35c0-8.54,5.75-13.81,11.79-13.81,6.7,0,10.48,4.81,10.48,12.32a13.73,13.73,0,0,1-.21,2.52H831.39c.31,5.56,3.71,9.17,8.72,9.17a11.42,11.42,0,0,0,6.53-2.1l1.59,2.92a15.48,15.48,0,0,1-8.67,2.72C832.57,50.09,827,45,827,36.35Zm18.35-2.15c0-5.26-2.37-8.12-6.47-8.12-3.7,0-7,3-7.53,8.12Z"/><rect class="cls-3" x="945.25" y="10.5" width="27.28" height="27.28"/></svg>