<?xml version="1.0" standalone="no"?>
<!DOCTYPE svg PUBLIC "-//W3C//DTD SVG 20010904//EN"
 "http://www.w3.org/TR/2001/REC-SVG-20010904/DTD/svg10.dtd">
<svg version="1.0" xmlns="http://www.w3.org/2000/svg"
 width="261.000000pt" height="261.000000pt" viewBox="0 0 261.000000 261.000000"
 preserveAspectRatio="xMidYMid meet">
<metadata>
Created by potrace 1.11, written by Peter Selinger 2001-2013
</metadata>
<g transform="translate(0.000000,261.000000) scale(0.100000,-0.100000)"
fill="#000000" stroke="none">
<path d="M1266 2453 c-15 -70 -29 -135 -31 -144 -2 -9 -12 -59 -24 -110 -11
-52 -22 -105 -25 -119 -28 -128 -47 -219 -51 -240 -31 -154 -41 -185 -60 -182
-17 3 -262 81 -760 243 -66 21 -123 39 -127 39 -4 0 16 -21 45 -47 29 -27 54
-50 57 -53 3 -3 50 -46 105 -95 55 -50 102 -92 105 -95 3 -3 30 -27 60 -55 31
-27 100 -91 155 -141 55 -50 117 -106 138 -124 36 -31 37 -35 22 -46 -10 -7
-52 -45 -94 -83 -42 -38 -85 -78 -97 -88 -18 -16 -158 -141 -188 -168 -6 -5
-56 -50 -111 -100 -55 -49 -105 -94 -111 -100 -6 -5 -26 -24 -46 -41 -19 -17
-38 -35 -41 -42 -4 -6 46 7 110 28 65 21 233 76 373 120 140 45 290 93 333
107 43 14 80 23 84 20 5 -6 38 -139 48 -199 3 -18 17 -82 30 -143 28 -128 93
-436 101 -480 3 -16 10 -48 16 -70 11 -39 12 -36 50 135 21 96 40 186 43 200
3 14 28 129 56 255 27 127 53 247 56 268 3 20 10 37 16 37 6 0 132 -40 281
-89 334 -109 573 -187 606 -195 22 -6 23 -5 8 6 -15 13 -134 121 -272 248 -69
63 -57 52 -166 150 -46 41 -111 100 -144 131 -34 31 -74 67 -90 81 l-29 24 34
28 c19 16 57 49 85 75 87 80 223 202 389 351 197 176 217 196 190 185 -11 -4
-81 -26 -155 -50 -190 -60 -296 -94 -530 -169 -113 -36 -208 -62 -211 -58 -3
4 -48 207 -99 452 -51 245 -96 451 -100 458 -3 7 -19 -45 -34 -115z"/>
</g>
</svg>
