<svg id="Layer_1" data-name="Layer 1" xmlns="http://www.w3.org/2000/svg" viewBox="0 0 30 30"><defs><style>.cls-1{fill:#429cd6;}.cls-2{fill:#fff;}.cls-3{fill:none;}</style></defs><title>twitter-color</title><path class="cls-1" d="M15,29A14,14,0,1,0,1,15,14,14,0,0,0,15,29"/><path class="cls-2" d="M20.94,12c0,.13,0,.27,0,.4A8.73,8.73,0,0,1,7.52,19.7a6.38,6.38,0,0,0,.74,0,6.14,6.14,0,0,0,3.81-1.31A3.07,3.07,0,0,1,9.2,16.3a4.14,4.14,0,0,0,.58,0,3.24,3.24,0,0,0,.81-.1,3.06,3.06,0,0,1-2.46-3v0a3.07,3.07,0,0,0,1.39.39,3.07,3.07,0,0,1-.95-4.1,8.71,8.71,0,0,0,6.32,3.21,3.44,3.44,0,0,1-.08-.7,3.07,3.07,0,0,1,5.31-2.1,6,6,0,0,0,1.95-.74,3.06,3.06,0,0,1-1.35,1.69,6.18,6.18,0,0,0,1.77-.48A6.61,6.61,0,0,1,20.94,12"/><circle class="cls-3" cx="15" cy="15" r="14"/></svg>